<?xml version="1.0" encoding="UTF-8"?>
<svg width="17px" height="17px" viewBox="0 0 17 17" version="1.1" xmlns="http://www.w3.org/2000/svg" xmlns:xlink="http://www.w3.org/1999/xlink">
    <!-- Generator: Sketch 44.1 (41455) - http://www.bohemiancoding.com/sketch -->
    <title>icon/feeds/关闭反馈</title>
    <desc>Created with Sketch.</desc>
    <defs></defs>
    <g id="Symbols" stroke="none" stroke-width="1" fill="none" fill-rule="evenodd">
        <g id="icon/feeds/关闭反馈">
            <g id="Group-2" transform="translate(0.000000, 3.000000)">
                <rect id="Rectangle-2" stroke="#CCCCCC" stroke-width="0.53125" x="0.265625" y="0.265625" width="16.46875" height="11.46875" rx="5.734375"></rect>
                <path d="M8.50002915,5.61613769 L6.30824803,3.4237954 C6.20186494,3.31738508 6.02657226,3.31387673 5.92078354,3.42002299 C5.81808868,3.52306493 5.8169514,3.69993307 5.92515368,3.80813535 L8.11659258,5.99957426 L5.92450629,8.19166055 C5.81812294,8.2980439 5.81449236,8.47348173 5.92045985,8.57944922 C6.02332825,8.68231762 6.20004624,8.68360505 6.30824852,8.57540277 L8.50033481,6.38331649 L10.6917479,8.57472958 C10.7981313,8.68111294 10.9734213,8.68489134 11.0792064,8.5791062 C11.1818978,8.47641482 11.1830323,8.29982775 11.0748303,8.19159804 L8.88372226,5.99992904 L11.0748428,3.80880854 C11.1812261,3.70242519 11.1848567,3.52698736 11.0788892,3.42101987 C10.9760208,3.31815147 10.7993028,3.31686404 10.6911005,3.42506632 L8.50002915,5.61613769 Z" id="Combined-Shape" fill="#CCCCCC" transform="translate(8.499675, 5.999379) rotate(-360.000000) translate(-8.499675, -5.999379) "></path>
            </g>
        </g>
    </g>
</svg>