{
  "asset": {
    "version": "2.0",
    "generator": "three.js learning workspace"
  },
  "scene": 0,
  "scenes": [
    {
      "name": "AnimationMixerSampleScene",
      "nodes": [0]
    }
  ],
  "nodes": [
    {
      "name": "AnimatedRoot",
      "children": [1]
    },
    {
      "name": "AnimatedCube",
      "mesh": 0,
      "translation": [0, 0, 0]
    }
  ],
  "meshes": [
    {
      "name": "AnimatedCubeMesh",
      "primitives": [
        {
          "attributes": {
            "POSITION": 0,
            "NORMAL": 1
          },
          "indices": 2,
          "material": 0
        }
      ]
    }
  ],
  "materials": [
    {
      "name": "ObservableBlue",
      "pbrMetallicRoughness": {
        "baseColorFactor": [0.18, 0.47, 0.56, 1],
        "roughnessFactor": 0.62,
        "metallicFactor": 0
      }
    }
  ],
  "animations": [
    {
      "name": "Slide",
      "samplers": [
        {
          "input": 3,
          "output": 4,
          "interpolation": "LINEAR"
        }
      ],
      "channels": [
        {
          "sampler": 0,
          "target": {
            "node": 1,
            "path": "translation"
          }
        }
      ]
    },
    {
      "name": "Spin",
      "samplers": [
        {
          "input": 5,
          "output": 6,
          "interpolation": "LINEAR"
        }
      ],
      "channels": [
        {
          "sampler": 0,
          "target": {
            "node": 1,
            "path": "rotation"
          }
        }
      ]
    },
    {
      "name": "Pulse",
      "samplers": [
        {
          "input": 5,
          "output": 7,
          "interpolation": "LINEAR"
        }
      ],
      "channels": [
        {
          "sampler": 0,
          "target": {
            "node": 1,
            "path": "scale"
          }
        }
      ]
    }
  ],
  "accessors": [
    {
      "bufferView": 0,
      "byteOffset": 0,
      "componentType": 5126,
      "count": 24,
      "type": "VEC3",
      "min": [-0.5, -0.5, -0.5],
      "max": [0.5, 0.5, 0.5]
    },
    {
      "bufferView": 1,
      "byteOffset": 0,
      "componentType": 5126,
      "count": 24,
      "type": "VEC3",
      "min": [-1, -1, -1],
      "max": [1, 1, 1]
    },
    {
      "bufferView": 2,
      "byteOffset": 0,
      "componentType": 5123,
      "count": 36,
      "type": "SCALAR",
      "min": [0],
      "max": [23]
    },
    {
      "bufferView": 3,
      "byteOffset": 0,
      "componentType": 5126,
      "count": 3,
      "type": "SCALAR",
      "min": [0],
      "max": [2]
    },
    {
      "bufferView": 4,
      "byteOffset": 0,
      "componentType": 5126,
      "count": 3,
      "type": "VEC3",
      "min": [-1, 0, 0],
      "max": [1, 0, 0]
    },
    {
      "bufferView": 5,
      "byteOffset": 0,
      "componentType": 5126,
      "count": 5,
      "type": "SCALAR",
      "min": [0],
      "max": [2]
    },
    {
      "bufferView": 6,
      "byteOffset": 0,
      "componentType": 5126,
      "count": 5,
      "type": "VEC4",
      "min": [-1, -1, -1, -1],
      "max": [1, 1, 1, 1]
    },
    {
      "bufferView": 7,
      "byteOffset": 0,
      "componentType": 5126,
      "count": 5,
      "type": "VEC3",
      "min": [0.78, 0.78, 0.78],
      "max": [1.28, 1.28, 1.28]
    }
  ],
  "bufferViews": [
    {
      "buffer": 0,
      "byteOffset": 0,
      "byteLength": 288,
      "target": 34962
    },
    {
      "buffer": 0,
      "byteOffset": 288,
      "byteLength": 288,
      "target": 34962
    },
    {
      "buffer": 0,
      "byteOffset": 576,
      "byteLength": 72,
      "target": 34963
    },
    {
      "buffer": 0,
      "byteOffset": 648,
      "byteLength": 12
    },
    {
      "buffer": 0,
      "byteOffset": 660,
      "byteLength": 36
    },
    {
      "buffer": 0,
      "byteOffset": 696,
      "byteLength": 20
    },
    {
      "buffer": 0,
      "byteOffset": 716,
      "byteLength": 80
    },
    {
      "buffer": 0,
      "byteOffset": 796,
      "byteLength": 60
    }
  ],
  "buffers": [
    {
      "uri": "data:application/octet-stream;base64,",
      "byteLength": 856
    }
  ]
}
