<svg viewBox="0 0 20 20" height="20" width="20" xmlns="http://www.w3.org/2000/svg">
    <g>
        <path d="M17 20H3a3 3 0 0 1-3-3V3a3 3 0 0 1 3-3h14a3 3 0 0 1 3 3v14a3 3 0 0 1-3 3z" fill="#2A2A2D" clip-rule="evenodd" fill-rule="evenodd" />
        <path d="M8.7 3.5c1.059 0 1.917.833 1.917 1.861 0 .819-.546 1.515-1.304 1.763v3.242c1.761.055 2.663-.222 2.814-1.301a1.84 1.84 0 0 1-.744-1.472c0-1.028.858-1.861 1.917-1.861s1.917.833 1.917 1.861-.858 1.861-1.917 1.861c-.157 0-.31-.018-.456-.053-.3 1.288-1.521 1.727-3.531 1.702v1.773c.758.248 1.304.944 1.304 1.763 0 1.028-.858 1.861-1.917 1.861-1.059 0-1.917-.833-1.917-1.861 0-.952.737-1.737 1.687-1.847V7.208c-.95-.11-1.687-.895-1.687-1.847C6.782 4.333 7.641 3.5 8.7 3.5zm0 .744c-.635 0-1.15.5-1.15 1.116 0 .617.515 1.116 1.15 1.116.635 0 1.15-.5 1.15-1.116 0-.616-.515-1.116-1.15-1.116zm0 9.279c-.635 0-1.15.5-1.15 1.116 0 .617.515 1.116 1.15 1.116.635 0 1.15-.5 1.15-1.116 0-.616-.515-1.116-1.15-1.116zm3.45-5.929c0-.617.515-1.116 1.15-1.116.635 0 1.15.5 1.15 1.116 0 .617-.515 1.116-1.15 1.116-.635 0-1.15-.5-1.15-1.116z" fill="#F3F4F6" clip-rule="evenodd" fill-rule="evenodd"/>
    </g>
</svg>
