<svg viewBox="0 0 60 20" height="20" width="60" xmlns="http://www.w3.org/2000/svg" >
    <g>
        <path d="M57 20H3a3 3 0 0 1-3-3V3a3 3 0 0 1 3-3h54a3 3 0 0 1 3 3v14a3 3 0 0 1-3 3z" fill="#2A2A2D" />
        <path d="m16.428 11.145.91.946a3.318 3.318 0 0 1-1.231 1.041 3.616 3.616 0 0 1-1.603.368 3.742 3.742 0 0 1-1.469-.284 3.553 3.553 0 0 1-1.169-.82 3.908 3.908 0 0 1-.776-1.251 4.51 4.51 0 0 1-.269-1.577c0-.568.09-1.09.269-1.566.186-.477.445-.89.776-1.24a3.463 3.463 0 0 1 1.179-.82 3.735 3.735 0 0 1 1.5-.295c.565 0 1.089.123 1.572.368.49.238.896.585 1.22 1.041l-.91.946a2.358 2.358 0 0 0-.827-.809 2.02 2.02 0 0 0-1.065-.294c-.434 0-.821.116-1.158.347a2.283 2.283 0 0 0-.796.936c-.193.399-.29.862-.29 1.388s.097.992.29 1.398c.193.399.459.715.796.946.338.224.724.336 1.158.336.386 0 .745-.098 1.076-.294.33-.198.603-.467.817-.811zm4.414 2.355c-.538 0-1.01-.119-1.417-.357a2.653 2.653 0 0 1-.962-.999c-.228-.428-.341-.915-.341-1.461s.114-1.03.341-1.451c.234-.428.555-.76.962-.999.407-.238.879-.357 1.417-.357s1.01.119 1.417.357c.414.238.738.571.972.999.234.42.352.904.352 1.451s-.117 1.034-.352 1.461a2.634 2.634 0 0 1-.972.999c-.406.238-.879.357-1.417.357zm0-1.156c.393 0 .71-.154.952-.463.248-.308.372-.708.372-1.198 0-.484-.124-.88-.372-1.188a1.152 1.152 0 0 0-.952-.463c-.386 0-.7.154-.941.463-.241.308-.362.704-.362 1.188 0 .491.121.89.362 1.198s.555.463.941.463zm11.803.988H31.28v-3.101c0-.399-.076-.697-.228-.894a.698.698 0 0 0-.6-.305c-.276 0-.524.133-.745.399-.214.259-.321.687-.321 1.283v2.618h-1.365v-3.101c0-.399-.072-.697-.217-.894a.698.698 0 0 0-.6-.305c-.276 0-.521.133-.734.399-.214.259-.321.687-.321 1.283v2.618h-1.365V8.044h1.355v.904c.152-.406.369-.687.652-.841a1.8 1.8 0 0 1 .848-.231c.365 0 .676.102.931.305.262.196.452.491.569.883.11-.308.259-.547.445-.715.186-.175.39-.298.61-.368.221-.07.434-.105.641-.105.565 0 1.007.196 1.324.589.324.385.486.943.486 1.671v3.196zm9.252 0h-1.365v-3.101c0-.399-.076-.697-.228-.894a.698.698 0 0 0-.6-.305c-.276 0-.524.133-.745.399-.214.259-.321.687-.321 1.283v2.618h-1.365v-3.101c0-.399-.072-.697-.217-.894a.698.698 0 0 0-.6-.305c-.276 0-.521.133-.734.399-.214.259-.321.687-.321 1.283v2.618h-1.365V8.044h1.355v.904c.152-.406.369-.687.652-.841a1.8 1.8 0 0 1 .848-.231c.365 0 .676.102.931.305.262.196.452.491.569.883.11-.308.259-.547.445-.715.186-.175.39-.298.61-.368s.434-.105.641-.105c.565 0 1.007.196 1.324.589.324.385.486.943.486 1.671v3.196zm2.912-7.012a.794.794 0 0 1-.238.578.809.809 0 0 1-.6.242.809.809 0 0 1-.6-.242.794.794 0 0 1-.238-.578c0-.231.079-.424.238-.578a.81.81 0 0 1 .601-.242c.241 0 .441.081.6.242a.774.774 0 0 1 .237.578zm-.155 7.012h-1.365V8.044h1.365v5.288zm4.524 0h-1.231c-.917 0-1.376-.48-1.376-1.44V9.158h-.827V8.044h.827V6.646h1.365v1.398h1.189v1.114h-1.189v2.491c0 .364.165.547.496.547h.745v1.136z" fill="#F3F4F6" />
    </g>
</svg>
