<svg viewBox="0 0 10 10" height="10" width="10" xmlns="http://www.w3.org/2000/svg">
    <g>
        <path fill="#495CEF" d="M.31 3.826c.356.443 1.005.533 1.87.533.865 0 1.513-.091 1.87-.533.31-.384.31-.909.31-1.646C4.359.708 4.266 0 2.179 0 .093 0 0 .708 0 2.18h.385L0 2.192c0 .725 0 1.25.31 1.634zm5.641 0c.356.443 1.005.533 1.87.533.865 0 1.513-.091 1.87-.533C10 3.442 10 2.917 10 2.18 10 .708 9.907 0 7.821 0s-2.18.708-2.18 2.18h.385l-.385.012c0 .725 0 1.25.31 1.634zM2.179 10c-.865 0-1.513-.091-1.87-.533C0 9.083 0 8.558 0 7.833l.385-.013H0c0-1.472.093-2.18 2.179-2.18 2.087 0 2.179.708 2.179 2.18 0 .737 0 1.262-.31 1.646-.355.443-1.004.534-1.869.534zm3.772-.533c.356.442 1.005.533 1.87.533.865 0 1.513-.091 1.87-.533C10 9.083 10 8.558 10 7.82c0-1.472-.093-2.18-2.179-2.18s-2.18.709-2.18 2.18h.385l-.385.013c0 .725 0 1.25.31 1.634z" clip-rule="evenodd" fill-rule="evenodd"/>
    </g>
</svg>
