<svg viewBox="0 0 20 20" height="20" width="20" xmlns="http://www.w3.org/2000/svg">
    <g>
        <path d="M20 17c0 1.65-1.35 3-3 3H3c-1.65 0-3-1.35-3-3V3c0-1.65 1.35-3 3-3h14c1.65 0 3 1.35 3 3v14z" fill="#FFFFFF" />
        <path d="m13.122 4.31 2.553 2.597a1.111 1.111 0 0 1-.006 1.564l-7.543 7.551H4.007v-4.118l7.534-7.599a1.11 1.11 0 0 1 1.581.005zm-.464 5.603-2.567-2.567-4.973 5.016v2.549h2.547l4.993-4.998zm.785-.786 1.439-1.441-2.553-2.597-1.456 1.468 2.57 2.57z" fill="#2A2A2D" clip-rule="evenodd" fill-rule="evenodd"/>
    </g>
</svg>
