<?xml version="1.0" encoding="UTF-8"?>
<svg data-bbox="6 4.497 238 261.008" viewBox="0 0 250 270" height="270" width="250" xmlns="http://www.w3.org/2000/svg" data-type="ugc">
    <g>
        <path d="M25 130.503c-7.755.207-19 4.34-19 15.81 0 10.912 11.245 14.983 19 15.19" stroke-width="11" stroke="#FFB615" fill="none"/>
        <path d="M226 130.503c7.347.207 18 4.34 18 15.81 0 10.912-10.653 14.983-18 15.19" stroke-width="11" stroke="#FFB615" fill="none"/>
        <path d="M143.855 21.457c12.407-13.351 33.287-14.116 46.638-1.709 13.351 12.407 14.116 33.287 1.709 46.638-12.407 13.351-33.287 14.116-46.638 1.709-13.35-12.407-14.115-33.288-1.709-46.638z" fill="#7FC2F4"/>
        <path d="M134.036 5.554c13.779 4.04 21.674 18.486 17.634 32.265-4.04 13.779-18.486 21.674-32.265 17.634-13.779-4.04-21.674-18.486-17.634-32.265 4.04-13.78 18.485-21.675 32.265-17.634z" fill="#FF5B2B"/>
        <path d="M101.402 17.638c12.454 3.652 19.59 16.709 15.938 29.163-3.652 12.454-16.709 19.59-29.163 15.938-12.454-3.652-19.59-16.709-15.938-29.163 3.652-12.454 16.709-19.59 29.163-15.938z" fill="#B6C1F0"/>
        <path d="M69.779 33.422c10.069 2.953 15.839 13.509 12.886 23.579C79.713 67.07 69.156 72.84 59.087 69.887c-10.069-2.953-15.839-13.509-12.886-23.579C49.153 36.239 59.71 30.47 69.779 33.422z" fill="#92D0AB"/>
        <path d="M105.295 44.94c5.548-17.273 24.047-26.778 41.32-21.23l.288.092c17.273 5.548 26.778 24.047 21.23 41.32-5.548 17.273-24.047 26.778-41.32 21.23l-.288-.092c-17.273-5.547-26.778-24.047-21.23-41.32z" fill="#DCD9BF"/>
        <path d="M96.607 53.084c14.376 10.28 17.695 30.268 7.415 44.643-10.28 14.376-30.268 17.695-44.643 7.415-14.376-10.28-17.695-30.268-7.415-44.643 10.28-14.376 30.268-17.696 44.643-7.415z" fill="#FA9DBC"/>
        <path d="M117.575 37.866c16.826 5.407 26.082 23.43 20.676 40.256-5.407 16.826-23.43 26.082-40.256 20.676-16.826-5.407-26.082-23.43-20.676-40.256 5.407-16.826 23.43-26.083 40.256-20.676z" fill="#A09D2A"/>
        <path d="M112.164 66.51c10.554-16.014 32.091-20.44 48.104-9.887 16.014 10.554 20.44 32.091 9.887 48.104-10.554 16.014-32.091 20.44-48.104 9.887-16.015-10.553-20.441-32.09-9.887-48.104z" fill="#268040"/>
        <path d="M104.96 69.224c15.774 5.069 24.452 21.966 19.383 37.74-5.069 15.774-21.966 24.452-37.74 19.383-15.774-5.069-24.452-21.966-19.383-37.74 5.069-15.774 21.966-24.452 37.74-19.383z" fill="#FF2F2F"/>
        <path d="M190.234 40.864c19.33 0 35 15.67 35 35s-15.67 35-35 35-35-15.67-35-35 15.67-35 35-35z" fill="#90D3AA"/>
        <path d="M164.516 66.439c12.979 0 23.5 10.521 23.5 23.5s-10.521 23.5-23.5 23.5-23.5-10.521-23.5-23.5c0-12.978 10.521-23.5 23.5-23.5z" fill="#6955A2"/>
        <path d="M139.93 81.106c12.979 0 23.5 10.521 23.5 23.5s-10.521 23.5-23.5 23.5-23.5-10.521-23.5-23.5 10.521-23.5 23.5-23.5z" fill="#F486C9"/>
        <path d="M226.101 92.261c-.027.021-.02.042-.051.063-3.99 2.856-6.605 7.644-6.605 13.073 0 2.461.543 4.787 1.505 6.865 5.877 12.186 12.05 30.41 12.05 57.348 0 32.466-13.369 57.275-34.697 73.519l6.796 12.025c1.863 3.302.76 7.521-2.471 9.425-3.23 1.905-7.357.774-9.22-2.528l-6.486-11.485c-17.54 9.81-38.88 14.918-61.922 14.918-23.043 0-44.38-5.108-61.918-14.918l-6.486 11.485c-1.864 3.299-5.99 4.43-9.221 2.524-3.23-1.905-4.333-6.122-2.471-9.424l6.793-12.025C30.369 226.879 17 202.07 17 169.61c0-26.938 6.173-45.16 12.049-57.348a16.362 16.362 0 0 0 1.505-6.865c0-5.429-2.615-10.217-6.605-13.073-.03-.02-.024-.042-.051-.063C19.485 89.19 17 85.874 17 82.401c0-8.64 9.125-13.733 32.614-18.898-2.139 4.264-2.673 6.396-3.743 11.726-7.627 2.123-9.624 4.264-8.51 7.522 1.165 7.616 39.909 13.734 87.637 13.734 47.716 0 81.803-9.531 88.219-13.794 6.416-4.264 7.174-5.02 8.02-5.863.534-.533 2.138-2.665 2.673-3.731s.535-2.665.535-2.665c5.52 3.514 8.553 8.032 8.553 11.97 0 3.472-2.485 6.789-6.9 9.858l.003.001z" fill="#FFB615" clip-rule="evenodd" fill-rule="evenodd"/>
        <path d="M54.537 57.661s-3.705 4.569-5.558 8.223c-1.853 3.655-3.151 8.907-2.779 14.619-2.65-.024-4.507-.826-6.813-2.521-5.845-4.298-7.132-12.532-2.884-18.376 4.247-5.845 12.652-6.7 18.497-2.401l-.463.456z" fill="#7FC2F4"/>
    </g>
</svg>
