<svg viewBox="0 0 20 20" height="20" width="20" xmlns="http://www.w3.org/2000/svg" >
    <g>
        <path d="M17 20H3a3 3 0 0 1-3-3V3a3 3 0 0 1 3-3h14a3 3 0 0 1 3 3v14a3 3 0 0 1-3 3z" fill="#2A2A2D" clip-rule="evenodd" fill-rule="evenodd" />
        <path d="M15 10c0 .414-.28.75-.625.75h-8.75C5.28 10.75 5 10.414 5 10s.28-.75.625-.75h8.75c.345 0 .625.336.625.75z" fill="#F3F4F6" />
        <path d="M5 6c0-.414.28-.75.625-.75h8.75c.345 0 .625.336.625.75s-.28.75-.625.75h-8.75C5.28 6.75 5 6.414 5 6z" fill="#F3F4F6" />
        <path d="M15 14c0 .414-.28.75-.625.75h-8.75C5.28 14.75 5 14.414 5 14s.28-.75.625-.75h8.75c.345 0 .625.336.625.75z" fill="#F3F4F6" />
    </g>
</svg>
