<svg viewBox="0 0 20 20" height="20" width="20" xmlns="http://www.w3.org/2000/svg">
    <g>
        <path d="M20 17c0 1.65-1.35 3-3 3H3c-1.65 0-3-1.35-3-3V3c0-1.65 1.35-3 3-3h14c1.65 0 3 1.35 3 3v14z" fill="#FFFFFF" />
        <path d="m5.417 9.216-.002 5.852h2.5v-4.167h4.167v4.167h2.5v-5l.002-.852L10 5.206l-4.583 4.01zm10 5.852c0 .46-.373.833-.833.833H5.417a.833.833 0 0 1-.833-.833v-.286a1.235 1.235 0 0 1-.003-.086V9.948l-.973.852a.416.416 0 1 1-.549-.627L10 4.098l6.941 6.073a.416.416 0 1 1-.549.627l-.975-.854v5.124zm-6.67 0h2.5v-3.333h-2.5v3.333z" fill="#2A2A2D" />
    </g>
</svg>
