<svg viewBox="0 0 20 20" height="20" width="20" xmlns="http://www.w3.org/2000/svg" >
    <g>
        <path d="M20 17c0 1.65-1.35 3-3 3H3c-1.65 0-3-1.35-3-3V3c0-1.65 1.35-3 3-3h14c1.65 0 3 1.35 3 3v14z" fill="#FFFFFF" />
        <path d="M12.5 14.5v.917c0 .46-.373.833-.833.833h-7.5a.833.833 0 0 1-.833-.833V4.583c0-.46.373-.833.833-.833h7.5c.46 0 .833.373.833.833v1.75a4.168 4.168 0 0 1 2.393 6.72l1.652 1.652a.417.417 0 0 1-.589.589l-1.652-1.652a4.135 4.135 0 0 1-1.804.858zm-.833-8.25V4.583h-7.5v10.833h7.5v-.833a4.167 4.167 0 1 1 0-8.333zM15 10.417a3.333 3.333 0 1 1-6.665 0 3.333 3.333 0 0 1 6.665 0z" fill="#2A2A2D" clip-rule="evenodd" fill-rule="evenodd" />
    </g>
</svg>
