<svg viewBox="0 0 60 20" height="20" width="60" xmlns="http://www.w3.org/2000/svg" >
    <g>
        <path fill="#E7EAFF" d="M57 0H30v20h27a3 3 0 0 0 3-3V3a3 3 0 0 0-3-3z"/>
        <path fill="#FFFFFF" d="M3 0a3 3 0 0 0-3 3v14a3 3 0 0 0 3 3h27V0H3z" />
        <path fill="#9FA4BA" d="m11.363 5.75 1.262 8.5 2.051-3.001c.262-.383.672-.64 1.131-.708l2.829-.42-7.273-4.371zm.438 8.622-1.262-8.5a.834.834 0 0 1 1.253-.837l7.273 4.371c.67.403.467 1.423-.307 1.538l-2.829.42a.832.832 0 0 0-.566.354l-2.051 3.001c-.426.626-1.4.402-1.511-.347z" clip-rule="evenodd" fill-rule="evenodd" />
        <path fill="#4152D9" d="M45 14.583c-2.222 0-4.028-1.528-5.417-4.583C40.972 6.944 42.778 5.417 45 5.417S49.028 6.944 50.417 10c-1.389 3.056-3.195 4.583-5.417 4.583zm0-8.333c-1.767 0-3.26 1.2-4.497 3.75 1.236 2.55 2.728 3.75 4.497 3.75s3.26-1.2 4.497-3.75C48.26 7.45 46.767 6.25 45 6.25zm0 5.833a2.083 2.083 0 1 1 0-4.166 2.083 2.083 0 0 1 0 4.166zm0-.833a1.25 1.25 0 1 0 0-2.5 1.25 1.25 0 0 0 0 2.5z" clip-rule="evenodd" fill-rule="evenodd" />
    </g>
</svg>
