<svg viewBox="0 0 20 20" height="20" width="20" xmlns="http://www.w3.org/2000/svg" >
    <g>
        <path d="M20 17c0 1.65-1.35 3-3 3H3c-1.65 0-3-1.35-3-3V3c0-1.65 1.35-3 3-3h14c1.65 0 3 1.35 3 3v14z" fill="#FFFFFF" />
        <path d="M11.743 6.25a1.23 1.23 0 0 1-.077-.417c0-.147.03-.286.077-.417.172-.484.631-.833 1.173-.833s1.001.349 1.173.833c.047.131.077.27.077.417 0 .147-.03.286-.077.417a1.248 1.248 0 0 1-1.173.833c-.542 0-1-.349-1.173-.833zm3.214-.833c-.193-.95-1.035-1.667-2.041-1.667s-1.848.717-2.041 1.667H2.5v.833h8.376c.193.95 1.035 1.667 2.041 1.667s1.847-.717 2.04-1.667H17.5v-.833h-2.543zm-2.38 9.166a1.23 1.23 0 0 1-.077-.417c0-.147.03-.286.077-.417.172-.484.631-.833 1.173-.833s1.001.349 1.173.833c.047.132.077.271.077.418 0 .147-.03.286-.077.417-.173.484-.631.833-1.173.833s-1.001-.35-1.173-.834zm3.214-.833c-.193-.95-1.035-1.667-2.041-1.667s-1.847.717-2.041 1.667H2.5v.833h9.209c.193.95 1.035 1.667 2.041 1.667s1.847-.717 2.041-1.667H17.5v-.833h-1.709zM5.077 10.417C5.03 10.286 5 10.147 5 10s.03-.286.077-.417c.172-.484.63-.833 1.173-.833s1.001.349 1.173.833c.047.131.077.27.077.417s-.03.286-.077.417c-.172.484-.63.833-1.173.833a1.246 1.246 0 0 1-1.173-.833zm3.214-.834c-.194-.95-1.035-1.666-2.041-1.666s-1.848.716-2.041 1.666H2.5v.833h1.709c.193.95 1.035 1.667 2.041 1.667s1.847-.717 2.041-1.667H17.5v-.833H8.291z" fill="#2A2A2D" clip-rule="evenodd" fill-rule="evenodd"/>
    </g>
</svg>
