<svg viewBox="0 0 20 20" height="20" width="20" xmlns="http://www.w3.org/2000/svg" >
    <g>
        <path d="M20 17c0 1.65-1.35 3-3 3H3c-1.65 0-3-1.35-3-3V3c0-1.65 1.35-3 3-3h14c1.65 0 3 1.35 3 3v14z" fill="#FFFFFF" />
        <path d="M5 13.008v2.827h-.833v-4.167h4.167v.833H5.669a5 5 0 0 0 9.331-2.5h.833A5.833 5.833 0 0 1 5 13.008zm9.331-5.506A5 5 0 0 0 5 10.002h-.833A5.833 5.833 0 0 1 15 6.995V4.168h.833v4.167h-4.167v-.833h2.665z" fill="#2A2A2D" clip-rule="evenodd" fill-rule="evenodd"/>
    </g>
</svg>
