<svg viewBox="0 0 20 20" height="20" width="20" xmlns="http://www.w3.org/2000/svg" >
    <g>
        <path d="M20 17c0 1.65-1.35 3-3 3H3c-1.65 0-3-1.35-3-3V3c0-1.65 1.35-3 3-3h14c1.65 0 3 1.35 3 3v14z" fill="#FFFFFF"/>
        <path d="M5.417 11.459c0 2.397 2.099 4.422 4.583 4.422s4.583-2.026 4.583-4.422c0-3.683-4.532-7.11-4.577-7.142-.058.032-4.589 3.458-4.589 7.142zm-.834-.001c0-4.091 4.874-7.782 4.923-7.82L10 3.284l.493.354c.049.037 4.923 3.728 4.923 7.821 0 2.85-2.481 5.256-5.417 5.256-2.935-.001-5.416-2.407-5.416-5.257zm5.834 1.826c1.337-.054 2.497-1.152 2.5-2.489 0-1.342-1.171-2.434-2.5-2.49v4.979zm1.666-2.489c0 .571-.392 1.074-.833 1.372V9.423c.442.299.833.802.833 1.372z" fill="#2A2A2D" clip-rule="evenodd" fill-rule="evenodd"/>
    </g>
</svg>