<svg viewBox="0 0 60 20" height="20" width="60" xmlns="http://www.w3.org/2000/svg" >
    <g>
        <path d="M57 20H3a3 3 0 0 1-3-3V3a3 3 0 0 1 3-3h54a3 3 0 0 1 3 3v14a3 3 0 0 1-3 3z" fill="#2A2A2D" />
        <path d="M17.889 8.7c-.365-1.4-1.51-2.4-3.093-2.4-1.023 0-1.832.527-2.663 1.6h1.863v.8h-3.2V5.5h.8v1.789c.941-1.177 1.918-1.789 3.2-1.789 2.013 0 3.523 1.2 3.912 3.2h-.819zm-6.272 1.6c.365 1.4 1.51 2.4 3.093 2.4 1.023 0 1.832-.527 2.663-1.6H15.51v-.8h3.2v3.2h-.8v-1.789c-.941 1.177-1.918 1.789-3.2 1.789-2.013 0-3.515-1.2-3.915-3.2h.822z" fill="#F3F4F6" clip-rule="evenodd" fill-rule="evenodd" />
        <path d="m24.209 12.149.962-.973c.267.36.609.641 1.027.843.418.202.858.303 1.319.303.476 0 .85-.097 1.124-.292a.914.914 0 0 0 .422-.789c0-.303-.133-.541-.4-.714-.267-.18-.71-.317-1.33-.411-.959-.151-1.665-.407-2.119-.768s-.681-.847-.681-1.459c0-.483.123-.901.368-1.254.245-.36.584-.638 1.016-.832.439-.202.94-.303 1.503-.303.641 0 1.229.119 1.762.357s.984.569 1.351.995l-.93.962a2.88 2.88 0 0 0-.973-.789 2.564 2.564 0 0 0-1.2-.281c-.425 0-.771.09-1.038.27a.86.86 0 0 0-.389.746c0 .274.126.49.378.649.252.151.685.277 1.297.378.98.159 1.701.429 2.162.811.468.382.703.905.703 1.568 0 .476-.13.897-.389 1.265-.252.36-.609.641-1.07.843-.454.202-.987.303-1.6.303a4.55 4.55 0 0 1-1.838-.368 3.965 3.965 0 0 1-1.437-1.06zm11.172-4.184h1.427l-2.411 6.065c-.195.483-.45.847-.768 1.092-.31.252-.721.378-1.232.378h-.724v-1.168h.389c.375 0 .631-.05.768-.151a.906.906 0 0 0 .324-.465l.108-.303-2.195-5.449h1.481l1.416 3.957 1.417-3.956zm7.493 5.438h-1.427v-3.146c0-.425-.086-.742-.259-.951-.166-.216-.396-.324-.692-.324-.317 0-.598.141-.843.422-.245.274-.368.724-.368 1.351v2.649h-1.427V7.965h1.416v.951c.166-.432.404-.728.714-.886.317-.159.627-.238.93-.238.605 0 1.081.202 1.427.605.353.396.53.969.53 1.719v3.287zm5.444-1.773.886.886a2.88 2.88 0 0 1-1.005.778 2.975 2.975 0 0 1-1.286.281 2.95 2.95 0 0 1-1.481-.368 2.752 2.752 0 0 1-1.005-1.027 3.037 3.037 0 0 1-.368-1.503c0-.569.119-1.07.357-1.503.245-.432.58-.771 1.005-1.016.432-.245.93-.368 1.492-.368.966 0 1.73.353 2.292 1.059l-.897.886c-.353-.505-.789-.757-1.308-.757-.425 0-.775.155-1.049.465-.274.31-.411.721-.411 1.232 0 .512.137.926.411 1.243.281.31.634.465 1.059.465.533.003.969-.249 1.308-.753z" fill="#F3F4F6" />
    </g>
</svg>
