{
  "asset": {
    "generator": "three.js learning workspace",
    "version": "2.0"
  },
  "scene": 0,
  "scenes": [
    {
      "name": "Broken external buffer scene",
      "nodes": [0]
    }
  ],
  "nodes": [
    {
      "name": "broken_box",
      "mesh": 0
    }
  ],
  "meshes": [
    {
      "name": "BrokenBoxMesh",
      "primitives": [
        {
          "attributes": {
            "NORMAL": 1,
            "POSITION": 2
          },
          "indices": 0,
          "mode": 4,
          "material": 0
        }
      ]
    }
  ],
  "accessors": [
    {
      "bufferView": 0,
      "byteOffset": 0,
      "componentType": 5123,
      "count": 36,
      "max": [23],
      "min": [0],
      "type": "SCALAR"
    },
    {
      "bufferView": 1,
      "byteOffset": 0,
      "componentType": 5126,
      "count": 24,
      "max": [1.0, 1.0, 1.0],
      "min": [-1.0, -1.0, -1.0],
      "type": "VEC3"
    },
    {
      "bufferView": 1,
      "byteOffset": 288,
      "componentType": 5126,
      "count": 24,
      "max": [0.5, 0.5, 0.5],
      "min": [-0.5, -0.5, -0.5],
      "type": "VEC3"
    }
  ],
  "materials": [
    {
      "name": "broken_red",
      "pbrMetallicRoughness": {
        "baseColorFactor": [0.8, 0.0, 0.0, 1.0],
        "metallicFactor": 0.0
      }
    }
  ],
  "bufferViews": [
    {
      "buffer": 0,
      "byteOffset": 576,
      "byteLength": 72,
      "target": 34963
    },
    {
      "buffer": 0,
      "byteOffset": 0,
      "byteLength": 576,
      "byteStride": 12,
      "target": 34962
    }
  ],
  "buffers": [
    {
      "byteLength": 648,
      "uri": "MissingBox0.bin"
    }
  ]
}
