{
  "asset": {
    "generator": "three.js learning workspace",
    "version": "2.0"
  },
  "scene": 0,
  "scenes": [
    {
      "name": "Lesson multi-node scene",
      "nodes": [0]
    }
  ],
  "nodes": [
    {
      "name": "lesson_model_root",
      "children": [1, 2, 3]
    },
    {
      "name": "body_mesh_node",
      "mesh": 0,
      "translation": [0, 0, 0],
      "scale": [1.15, 0.55, 0.75]
    },
    {
      "name": "left_panel_mesh_node",
      "mesh": 1,
      "translation": [-1.15, 0, 0],
      "rotation": [0, 0, -0.22, 0.98],
      "scale": [0.36, 0.9, 0.45]
    },
    {
      "name": "right_panel_group",
      "children": [4],
      "translation": [1.15, 0, 0],
      "rotation": [0, 0, 0.22, 0.98]
    },
    {
      "name": "right_panel_mesh_node",
      "mesh": 2,
      "translation": [0, 0, 0],
      "scale": [0.36, 0.9, 0.45]
    }
  ],
  "meshes": [
    {
      "name": "BodyMesh",
      "primitives": [
        {
          "attributes": {
            "NORMAL": 1,
            "POSITION": 2
          },
          "indices": 0,
          "mode": 4,
          "material": 0
        }
      ]
    },
    {
      "name": "LeftPanelMesh",
      "primitives": [
        {
          "attributes": {
            "NORMAL": 1,
            "POSITION": 2
          },
          "indices": 0,
          "mode": 4,
          "material": 1
        }
      ]
    },
    {
      "name": "RightPanelMesh",
      "primitives": [
        {
          "attributes": {
            "NORMAL": 1,
            "POSITION": 2
          },
          "indices": 0,
          "mode": 4,
          "material": 2
        }
      ]
    }
  ],
  "accessors": [
    {
      "bufferView": 0,
      "byteOffset": 0,
      "componentType": 5123,
      "count": 36,
      "max": [23],
      "min": [0],
      "type": "SCALAR"
    },
    {
      "bufferView": 1,
      "byteOffset": 0,
      "componentType": 5126,
      "count": 24,
      "max": [1.0, 1.0, 1.0],
      "min": [-1.0, -1.0, -1.0],
      "type": "VEC3"
    },
    {
      "bufferView": 1,
      "byteOffset": 288,
      "componentType": 5126,
      "count": 24,
      "max": [0.5, 0.5, 0.5],
      "min": [-0.5, -0.5, -0.5],
      "type": "VEC3"
    }
  ],
  "materials": [
    {
      "name": "body_blue",
      "pbrMetallicRoughness": {
        "baseColorFactor": [0.18, 0.45, 0.56, 1.0],
        "metallicFactor": 0.0,
        "roughnessFactor": 0.55
      }
    },
    {
      "name": "left_green",
      "pbrMetallicRoughness": {
        "baseColorFactor": [0.2, 0.58, 0.34, 1.0],
        "metallicFactor": 0.0,
        "roughnessFactor": 0.6
      }
    },
    {
      "name": "right_orange",
      "pbrMetallicRoughness": {
        "baseColorFactor": [0.85, 0.34, 0.2, 1.0],
        "metallicFactor": 0.0,
        "roughnessFactor": 0.62
      }
    }
  ],
  "bufferViews": [
    {
      "buffer": 0,
      "byteOffset": 576,
      "byteLength": 72,
      "target": 34963
    },
    {
      "buffer": 0,
      "byteOffset": 0,
      "byteLength": 576,
      "byteStride": 12,
      "target": 34962
    }
  ],
  "buffers": [
    {
      "byteLength": 648,
      "uri": "Box0.bin"
    }
  ]
}
